<svg width="117" height="65" viewBox="0 0 117 65" fill="none" xmlns="http://www.w3.org/2000/svg">
<path d="M32.6622 16.4018C36.0637 16.5118 39.4227 17.5081 42.3355 19.2658C42.9233 19.6428 43.5242 19.9872 44.0644 20.4361C46.3647 22.184 48.2813 24.4228 49.6401 26.9746C50.6625 28.8759 51.3436 30.9375 51.7213 33.0616C52.3163 33.0766 52.8989 33.1395 53.4626 33.3413C54.9026 33.8232 56.0481 34.9684 56.6054 36.3731C56.9213 37.1997 57.0915 38.0968 57.0123 38.9831C56.9108 40.6749 56.1044 42.3102 54.8071 43.4032C53.9011 44.1768 52.7353 44.6824 51.5447 44.7663C51.0886 44.806 50.6391 44.7105 50.1854 44.7374C50.0397 44.9461 49.9401 45.1951 49.8249 45.4223C48.4222 48.2137 46.3348 50.6474 43.8177 52.495C41.4657 54.2227 38.7308 55.4226 35.8659 55.9832C34.8877 56.1407 33.9409 56.3534 32.9428 56.3326C28.3318 56.5728 23.675 55.1283 19.9917 52.3479C17.1849 50.2392 14.9528 47.3819 13.5906 44.1463C12.7643 42.1777 12.245 40.0825 12.0881 37.9522C11.7873 34.3646 12.5081 30.6871 14.1159 27.467C15.5474 24.566 17.7072 22.0465 20.3295 20.1564C22.8128 18.3667 25.7185 17.153 28.7409 16.664C30.0305 16.4074 31.3527 16.378 32.6622 16.4018Z" fill="black"/>
<path d="M29.7665 17.0601C34.0598 16.5198 38.5372 17.5289 42.2091 19.8111C42.8258 20.1154 43.3317 20.5532 43.8769 20.9622C46.2326 22.763 48.1523 25.1162 49.4613 27.7751C50.2899 29.453 50.8605 31.2438 51.1911 33.0847C50.4079 33.2269 49.6711 33.4417 48.9917 33.8697C48.806 33.98 48.8664 34.3256 49.097 34.3284C49.3078 34.3286 49.5264 34.1514 49.7212 34.0707C50.9736 33.468 52.4657 33.415 53.7304 34.0125C54.827 34.5142 55.671 35.4528 56.1195 36.5659C56.4214 37.2763 56.5072 38.0893 56.499 38.8557C56.4261 40.4183 55.6921 41.958 54.5015 42.977C53.2035 44.1184 51.3258 44.597 49.6757 44C49.3818 43.9003 49.1173 43.7331 48.8257 43.6296C48.5543 43.5581 48.4163 43.9194 48.6268 44.0747C48.9321 44.2926 49.3176 44.4131 49.6602 44.5628C48.165 47.7693 45.8071 50.5573 42.8633 52.5251C40.321 54.2336 37.359 55.347 34.3141 55.6973C31.8661 55.9989 29.3648 55.8143 26.9828 55.177C24.193 54.4394 21.5922 53.0604 19.3917 51.1961C17.1771 49.3152 15.3997 46.9312 14.221 44.2759C12.5083 40.4394 12.0882 36.0538 13.0532 31.9635C13.7504 28.9319 15.1992 26.0885 17.2198 23.725C19.6081 20.918 22.8113 18.8318 26.3369 17.7615C27.4522 17.4276 28.6046 17.1618 29.7665 17.0601Z" fill="#ECAD80"/>
<path d="M53.2882 35.8825C53.521 35.851 53.6265 36.1904 53.4519 36.3131C53.1398 36.5074 52.7811 36.6264 52.4554 36.7996C51.9559 37.0308 51.4944 37.3194 51.0402 37.6287C51.4413 37.7997 51.8679 37.9736 52.2358 38.2087C52.483 38.3722 52.704 38.5534 52.7763 38.8557C52.7841 39.1768 52.5902 39.461 52.367 39.6744C51.8866 40.1388 51.1923 40.4319 50.6086 40.7646C50.4585 40.8347 50.2322 40.9794 50.1098 40.7895C50.0043 40.6438 50.0777 40.5138 50.216 40.4323C50.7783 40.082 51.4876 39.8053 51.9753 39.3511C52.0872 39.238 52.2528 39.0785 52.2562 38.9096C51.8463 38.4446 51.0791 38.2535 50.533 37.9925C50.3103 37.8599 50.2931 37.6356 50.466 37.4494C51.0633 36.8859 51.8946 36.4809 52.6308 36.1299C52.8386 36.0354 53.0608 35.9134 53.2882 35.8825Z" fill="black"/>
<path d="M18.6755 35.6321C19.8426 35.3703 21.0986 35.5544 22.1417 36.142C23.2845 36.7782 24.1447 37.8846 24.4787 39.1487C24.6556 39.874 24.7081 40.657 24.5496 41.3905C24.3127 42.6013 23.5982 43.7034 22.5914 44.4177C21.752 45.0171 20.711 45.3492 19.6785 45.3255C18.2314 45.3248 16.8194 44.6313 15.9175 43.502C15.3538 42.8097 15.011 41.9724 14.8677 41.095C14.7353 40.0051 14.9456 38.8802 15.5084 37.9336C16.1874 36.7696 17.3575 35.9184 18.6755 35.6321Z" fill="black"/>
<path d="M18.5498 36.1891C20.2434 35.6979 22.137 36.3286 23.2091 37.7248C23.8873 38.5996 24.2572 39.7616 24.1114 40.8677C23.9976 42.0721 23.3545 43.1994 22.3913 43.9275C21.8188 44.3666 21.1428 44.6445 20.434 44.7696C18.6852 45.06 16.8563 44.1997 15.9612 42.669C15.1328 41.2986 15.1391 39.5201 15.9742 38.1545C16.5435 37.2001 17.4817 36.4915 18.5498 36.1891Z" fill="white"/>
<path d="M37.5446 36.2884C38.7013 36.1235 39.9301 35.9435 41.0969 36.0771C41.2929 36.1101 41.3659 36.1703 41.332 36.3843C41.1606 36.5587 40.8194 36.7298 40.7779 36.9866C40.8269 37.5198 41.6325 37.4329 41.7315 37.8626C41.7311 38.1271 41.5452 38.1792 41.317 38.1842C40.6304 38.1942 39.9456 38.2058 39.2602 38.257C37.8365 38.3867 36.4141 38.5119 35.0034 38.748C34.3379 38.8752 33.6578 38.9348 32.9909 39.0477C32.0129 39.2348 31.0365 39.3544 30.0762 39.6312C29.8432 39.6977 29.5963 39.7771 29.3543 39.7961C29.1651 39.7032 29.0357 39.3302 29.2455 39.1916C29.693 38.8775 30.2081 38.6411 30.7125 38.4336C32.0092 37.8625 33.3737 37.4363 34.7213 37.0019C35.6456 36.6954 36.5925 36.4836 37.5446 36.2884ZM21.1923 38.2992C21.4919 38.1895 21.7976 38.1518 22.1143 38.1911C22.9183 38.3006 23.5754 38.9847 23.6423 39.7959C23.7592 40.7816 22.9334 41.7626 21.9332 41.7662C21.1045 41.7998 20.3129 41.2175 20.1197 40.4068C19.8835 39.5511 20.3706 38.619 21.1923 38.2992Z" fill="black"/>
<path d="M32.7218 28.1113C34.9238 27.9824 37.066 28.4949 39.0711 29.3784C39.2832 29.4762 39.5295 29.5573 39.7114 29.7047C39.8474 29.9058 39.7218 30.1636 39.4632 30.1043C37.9371 29.6953 36.3995 29.5376 34.8245 29.4758C33.0013 29.4425 31.247 29.4922 29.4762 29.9819C29.1958 30.0485 28.8846 30.2329 28.5945 30.2098C28.3437 30.0826 28.4355 29.6783 28.6458 29.5441C29.7762 28.5982 31.2766 28.2046 32.7218 28.1113ZM20.7078 30.9259C21.0251 30.9526 21.3105 31.0397 21.5957 31.1788C21.5927 31.2867 21.5932 31.3942 21.5975 31.5032C21.364 31.5922 21.1221 31.6496 20.8771 31.6931C19.7172 31.9085 18.5717 32.3744 17.5132 32.8875C16.4677 33.4146 15.4036 34.0457 14.5484 34.852C14.3154 35.0566 14.223 35.3157 13.8691 35.3186C13.817 35.2429 13.7649 35.1682 13.7121 35.0944C13.7774 34.9455 13.834 34.7984 13.9173 34.6585C14.6523 33.4066 15.8174 32.3927 17.0944 31.7195C18.1782 31.1529 19.4776 30.7671 20.7078 30.9259Z" fill="black"/>
<path d="M31.7536 44.0676C32.9409 43.9311 34.3317 44.1282 35.2938 44.8885C35.872 45.3328 36.2721 45.9925 36.3587 46.7202C36.4749 47.6244 36.186 48.4924 35.7174 49.255C35.0164 50.3853 33.953 51.2835 32.7953 51.9201C32.1696 52.2353 31.5645 52.5512 30.8902 52.7537C29.4291 53.1829 27.8531 53.175 26.4007 52.7122C25.1072 52.2986 23.8586 51.6816 22.7853 50.8469C22.2583 50.4227 21.7451 49.8995 21.4437 49.2876C21.2163 48.8183 21.133 48.2445 21.4067 47.7751C21.6892 47.2663 22.2275 47.0017 22.7678 46.8508C23.8718 46.5852 24.9432 46.6778 26.0484 46.8703C26.6432 46.1977 27.3552 45.6625 28.1314 45.2153C29.2359 44.5937 30.4836 44.1556 31.7536 44.0676Z" fill="black"/>
<path d="M34.1097 44.8187C33.8244 45.0857 33.4994 45.3027 33.2109 45.5638C32.8639 45.9623 32.631 46.6026 32.1978 46.926C31.7467 47.045 31.2367 46.7214 30.84 46.958C30.0484 47.3484 29.2227 47.6534 28.3773 47.9047C27.1435 48.2545 25.7912 48.493 24.5087 48.359C24.1181 48.2973 23.8876 48.5375 23.507 48.6245C23.0825 48.2873 22.7589 47.8712 22.268 47.6157C23.3556 47.0335 24.8054 47.1917 25.9787 47.3919C26.3376 47.4692 26.494 47.1214 26.7218 46.9182C27.8269 45.8492 29.2517 45.1007 30.7462 44.7489C31.8547 44.474 33.0173 44.4627 34.1097 44.8187Z" fill="white"/>
<path d="M34.6283 45.0876C35.2985 45.4074 35.7734 46.1271 35.8595 46.8593C35.9075 47.5217 35.716 48.1275 35.4296 48.7155C34.8418 48.5429 34.2315 48.5366 33.6292 48.6316C32.3614 48.8342 31.1322 49.2697 29.9898 49.851C29.2181 50.252 28.4573 50.7372 27.8262 51.3398C27.517 51.6369 27.3063 51.9425 27.1374 52.3372C26.4314 52.2127 25.7911 51.952 25.1413 51.6581C24.2081 51.2239 23.3434 50.7007 22.6029 49.9789C22.2281 49.5992 21.8433 49.1254 21.77 48.5811C21.7376 48.3753 21.8128 48.1798 21.8665 47.9845C22.3784 48.2622 22.7722 48.6715 23.24 49.0036C23.6247 49.2721 24.0525 48.8667 24.4621 48.8925C24.9864 48.9278 25.5099 48.9174 26.0341 48.8963C27.8457 48.6985 29.6015 48.1645 31.2331 47.3574C31.61 47.398 32.135 47.5148 32.483 47.3305C32.8956 47.036 33.1749 46.4943 33.4538 46.0791C33.5694 45.911 33.7672 45.7869 33.9252 45.6596C34.1686 45.4791 34.3774 45.2554 34.6283 45.0876Z" fill="#8F2E45"/>
<path d="M33.9462 49.1225C34.3486 49.0737 34.7466 49.1015 35.1439 49.1769C34.4197 50.244 33.3185 51.084 32.1693 51.6507C30.7769 52.327 29.2004 52.6841 27.6545 52.4411C27.8041 52.18 27.9722 51.9351 28.1914 51.7265C28.9195 51.0051 29.8816 50.4691 30.8067 50.0415C31.7952 49.6024 32.8687 49.2439 33.9462 49.1225Z" fill="#EA869E"/>
<path d="M54.9744 6.10897C55.9175 6.11718 56.9595 6.15705 57.8567 6.46827C58.1404 6.57439 58.2381 6.90742 57.9264 7.04966C57.1318 7.27901 56.3608 7.45497 55.6254 7.86058C55.1472 8.11578 54.7427 8.45708 54.3409 8.81695C55.166 8.71735 55.9807 8.7613 56.8075 8.81842C58.2023 8.97386 59.6695 9.25589 60.9416 9.86611C61.1784 9.95974 61.3158 10.2396 61.4477 10.4438C62.3031 11.8995 62.9821 13.4951 63.3412 15.1485C63.5751 16.6474 63.7151 18.3068 63.2467 19.775C63.033 20.4753 62.6211 21.1938 62.0265 21.636C61.9156 21.7499 61.7366 21.596 61.6572 21.5077C60.4572 20.1141 58.8776 19.0414 57.2208 18.264C55.0481 17.2425 52.5614 16.653 50.1549 16.8278C51.3246 17.1305 52.4484 17.505 53.4943 18.1209C54.3782 18.6388 55.1926 19.3175 55.9495 20.0054C56.119 20.1629 56.0944 20.2792 56.0307 20.4826C55.8613 20.5115 55.75 20.5098 55.5969 20.4286C54.9494 20.1022 54.2767 19.8132 53.5794 19.6109C51.9115 19.0802 50.042 18.8192 48.3459 19.368C49.2041 20.7221 49.9236 22.1524 50.5315 23.6347C51.5074 26.0372 52.2624 28.5856 52.574 31.1645C52.6392 31.7822 52.6606 32.4202 52.6409 33.0408C52.6146 33.2235 52.611 33.5843 52.3482 33.5649C51.3333 33.4812 50.2662 33.7288 49.4057 34.2774C49.6311 36.3186 48.8342 38.4776 47.6346 40.108C47.5088 40.2905 47.3724 40.3907 47.1396 40.3379C46.8946 40.1689 47.1087 39.8621 47.1171 39.6246C47.1627 39.0491 47.1181 38.4581 47.098 37.8809C47.0131 37.1701 47.0209 36.4548 46.9032 35.748C46.8217 35.1283 46.7927 34.5044 46.6817 33.8867C46.4951 32.5976 46.3118 31.2785 45.9423 30.0268C45.92 29.9169 45.8038 29.8932 45.7192 29.844C45.1337 29.5833 44.5938 29.2393 44.0863 28.85C43.004 28.0063 42.013 27.012 41.2246 25.8878C41.3219 27.5039 41.1235 29.1037 40.743 30.6737C40.6945 30.8209 40.6666 31.0522 40.5302 31.1434C40.1688 31.2349 39.7276 31.058 39.3637 31.0036C38.9833 30.9086 38.5515 30.893 38.1896 30.7577C38.1135 30.5087 38.1156 30.2251 38.0986 29.9659C38.0213 28.2322 37.7967 26.5138 37.3325 24.84C37.1053 24.0488 36.8976 23.2378 36.5992 22.4706C36.7978 23.9199 36.8613 25.4002 36.829 26.863C36.7859 27.7691 36.6619 28.6741 36.5027 29.5672C36.4579 29.8082 36.4124 30.07 36.3113 30.294C36.2448 30.4412 36.1608 30.4906 35.9972 30.476C31.2702 29.9546 26.3622 30.0353 21.7028 31.036C21.5088 31.0879 21.4116 30.9171 21.3264 30.7783C20.9053 30.022 20.5601 29.1975 20.3882 28.348C20.1998 27.476 20.0814 26.5586 20.1546 25.6666C19.968 26.4064 19.9223 27.2025 19.9018 27.963C19.868 28.9659 20.121 30.0056 20.4186 30.9586C20.4584 31.0919 20.4598 31.2262 20.4623 31.3632C18.877 31.8152 17.1447 32.4715 15.9231 33.6146C15.8249 33.703 15.67 33.6767 15.5758 33.5926C14.5138 32.7541 13.8704 31.5907 13.4655 30.3165C13.1177 31.1042 13.0573 32.0639 12.8707 32.9059C12.8083 33.1039 12.5074 33.1913 12.3716 33.0108C12.237 32.7961 12.1615 32.5353 12.1099 32.2893C11.751 30.7398 12.2437 29.0039 13.1063 27.6992C13.1444 26.0925 13.4962 24.6051 14.1691 23.1467C12.7461 23.3956 11.4348 23.918 10.1223 24.5023C9.24903 24.8908 8.40233 25.3502 7.58526 25.8471C6.66836 26.4057 5.81027 27.0993 5.00584 27.8102C4.16921 28.5403 3.49292 29.3893 2.86961 30.3041C2.75134 30.4716 2.59983 30.5087 2.41785 30.407C2.31451 30.1176 2.2904 29.7945 2.26277 29.4905C2.20247 28.3954 2.16041 27.285 2.24636 26.191C2.35998 25.1328 2.4938 24.061 2.78418 23.0413C3.30226 21.0581 4.20652 19.1837 5.48563 17.5788C6.0423 16.9018 6.70545 16.3337 7.43413 15.8498C6.29519 15.606 5.1343 15.7094 4.03227 16.0689C3.87654 16.1181 3.75921 16.1841 3.62975 16.0415C3.50974 15.8577 3.63415 15.7166 3.75552 15.5811C4.28202 15.037 4.95216 14.6431 5.64985 14.3577C6.94419 13.8361 8.31998 13.6464 9.70907 13.6312C11.947 13.6413 14.2346 14.1183 16.2473 15.1087C17.5663 15.7583 18.9081 16.7275 19.6546 18.0198C22.0906 15.8537 25.1114 14.4118 28.2692 13.6542C30.3326 13.1586 32.4568 12.9386 34.5784 13.0344C37.4489 13.143 40.3561 13.7966 42.9424 15.0623C43.4595 13.1429 44.6136 11.5438 46.0064 10.1591C47.1432 9.06553 48.4448 8.03578 49.8908 7.38653C51.4881 6.63209 53.2059 6.16902 54.9744 6.10897Z" fill="black"/>
<path d="M55.2936 6.62763C55.8763 6.60798 56.4398 6.69687 57.0146 6.77123C56.4496 6.95503 55.9082 7.13207 55.3882 7.42896C54.7065 7.80518 54.1419 8.32605 53.6246 8.90062C53.2439 9.05224 52.8036 9.06977 52.4191 9.21906C52.1974 9.38308 52.2531 9.66279 52.5396 9.68616C53.5155 9.49575 54.4084 9.21743 55.3726 9.27739C56.2431 9.26753 57.1186 9.33697 57.9755 9.49249C58.7535 9.61891 59.5359 9.80136 60.271 10.0879C60.4976 10.187 60.7178 10.2482 60.8551 10.4716C61.1182 10.8747 61.3454 11.3045 61.5663 11.7332C59.5957 10.9656 57.5195 10.6529 55.4137 10.6093C53.1932 10.6306 50.8883 10.938 48.8871 11.9557C48.6021 12.1142 48.2632 12.2627 48.0392 12.5049C47.9536 12.7687 48.2057 12.9649 48.4371 12.8089C49.7605 11.9572 51.2475 11.5461 52.7881 11.2992C55.7586 10.8933 58.9063 11.1973 61.6934 12.3333C61.796 12.3834 61.8958 12.3962 61.9355 12.5187C62.3409 13.4836 62.7321 14.5145 62.8873 15.5529C63.0443 16.35 63.0423 17.1355 63.0453 17.944C62.9893 19.079 62.7676 20.2149 61.9764 21.0814C60.8108 19.7929 59.3943 18.7753 57.8457 17.9955C55.9201 17.0343 53.7717 16.4023 51.6163 16.2998C50.6417 16.2624 49.6731 16.3239 48.7257 16.5671C48.5485 16.6255 48.3537 16.8363 48.5161 17.0142C48.63 17.1717 48.7863 17.1655 48.9616 17.1799C49.4486 17.2 49.9328 17.293 50.4056 17.4068C51.8248 17.7868 53.1755 18.4118 54.3413 19.3129C53.632 19.0804 52.9113 18.8686 52.1789 18.7208C50.8131 18.4773 49.3604 18.4647 48.0368 18.9254C47.7857 18.5355 47.4258 18.2817 47.1262 17.9279C46.8944 17.6356 46.5868 17.4592 46.3113 17.216C45.423 16.4673 44.4471 15.8517 43.4279 15.2986C43.6855 14.1807 44.2347 13.1207 44.9169 12.2038C45.8276 10.9322 47.018 9.83702 48.2786 8.92062C49.3707 8.11646 50.6588 7.55782 51.9404 7.13608C53.0204 6.7993 54.1659 6.65702 55.2936 6.62763ZM7.62621 14.3331C8.53559 14.1321 9.41933 14.1478 10.343 14.1597C12.757 14.2747 15.2817 14.9511 17.2974 16.3142C18.1276 16.8703 18.8407 17.5867 19.3148 18.4732C17.1609 19.0816 15.4982 20.7246 14.4333 22.6432C12.7378 22.8459 11.0367 23.51 9.49394 24.2251C8.16057 24.8715 6.83326 25.6267 5.68527 26.5672C5.23526 26.929 4.79161 27.301 4.36974 27.6942C3.75817 28.2671 3.24514 28.9041 2.74595 29.5728C2.71963 29.1898 2.68861 28.8046 2.69347 28.4195C2.70926 27.7214 2.65164 27.0707 2.76424 26.3631C2.95088 26.1147 3.19015 25.9005 3.40813 25.6795C5.25293 23.9167 7.59278 22.6833 10.0849 22.1426C10.8205 21.9987 11.5605 21.9378 12.3073 21.9005C12.5816 21.8632 12.5332 21.6679 12.5031 21.4593C12.1827 21.3728 11.8666 21.3864 11.5395 21.4154C9.99049 21.5474 8.45263 21.9707 7.03944 22.6167C5.49052 23.3333 4.01439 24.3109 2.82836 25.5438C3.12599 23.0987 3.91158 20.7024 5.32222 18.6687C6.02039 17.6104 6.9373 16.7093 8.05052 16.095C8.24633 15.9783 8.42819 15.8934 8.33314 15.6247C8.15921 15.4766 7.86898 15.4885 7.65474 15.4241C6.74363 15.1905 5.78992 15.1743 4.86739 15.3506C5.67271 14.8064 6.67575 14.4986 7.62621 14.3331Z" fill="#AB2A18"/>
<path d="M38.8799 14.1452C41.915 14.8887 44.8518 16.3481 47.0567 18.5921C47.546 19.0711 47.9005 19.6303 48.2569 20.209C49.2081 21.7827 49.9659 23.489 50.5887 25.2174C51.121 26.7151 51.5615 28.2369 51.8492 29.8014C52.0435 30.854 52.2106 32.006 52.1033 33.0734C51.1393 33.035 50.1924 33.2835 49.3394 33.7239C49.2645 33.4872 49.202 33.2405 49.0977 33.0148C48.963 32.8001 48.6141 32.8903 48.6473 33.1597C48.7377 33.6028 48.9008 34.0182 48.9228 34.477C49.0248 36.1239 48.5005 37.801 47.6355 39.192C47.6691 38.7153 47.6221 38.2295 47.5973 37.7513C47.4676 36.2083 47.3251 34.6621 47.0952 33.1306C46.8704 31.9662 46.7485 30.7166 46.3358 29.6018C46.1028 29.3903 45.7372 29.3271 45.4692 29.1522C43.9907 28.2993 42.7216 27.0441 41.7024 25.685C41.5021 25.4032 41.2785 25.1218 41.1324 24.8078C41.0452 24.4997 41.0155 24.1745 40.9413 23.8616C40.49 21.9295 39.6974 20.0934 38.6009 18.4398C38.2374 17.8994 37.7746 17.4807 37.3008 17.0415C37.188 16.9135 37.0746 16.946 36.9209 16.951C36.8891 17.0303 36.8564 17.1088 36.8236 17.1873C36.9866 17.5184 37.2654 17.6941 37.5251 17.9594C38.0387 18.4485 38.3892 19.0314 38.7371 19.6433C39.3921 20.7786 39.8965 21.9966 40.2569 23.2563C40.9692 25.687 40.8258 28.2058 40.2735 30.6504C39.7112 30.5659 39.1526 30.4362 38.5944 30.328C38.619 28.9251 38.4156 27.5552 38.1826 26.1764C37.9609 25.1552 37.6823 24.1484 37.3767 23.1496C37.0801 22.1787 36.6663 21.2388 36.2239 20.3268C36.1179 20.121 35.9721 20.1898 35.7799 20.186C35.7461 20.3282 35.711 20.4563 35.7477 20.6033C35.8407 21.0462 35.9136 21.4928 36.0058 21.9357C36.2889 23.4522 36.31 24.9393 36.3358 26.4744C36.3124 27.6404 36.1789 28.8081 35.9444 29.9515C32.7537 29.6105 29.546 29.5471 26.3484 29.8209C25.979 28.5889 25.6945 27.3541 25.7072 26.0591C25.639 24.7809 25.7793 23.5068 26.0456 22.2572C26.2646 21.2319 26.6648 20.2167 27.0754 19.2535C27.3702 18.5571 27.7057 17.8916 28.1529 17.279C28.2084 17.1858 28.324 17.0553 28.2931 16.94C28.2677 16.7147 27.9541 16.6886 27.8322 16.8555C27.3189 17.4996 26.9403 18.284 26.6095 19.0342C26.1777 20.0559 25.7793 21.0529 25.5449 22.1416C25.2589 23.4935 25.1039 24.9027 25.2142 26.2826C25.2213 27.4851 25.5256 28.7207 25.874 29.8659C25.323 29.9246 24.7721 29.9851 24.2228 30.0536C23.4088 30.2113 22.5907 30.2994 21.7873 30.5117C20.9124 29.0875 20.6505 27.4748 20.6379 25.8264C20.6485 24.6948 20.7925 23.561 21.0461 22.4579C21.0816 22.2788 21.2066 22.0049 21.095 21.8426C20.9532 21.6654 20.69 21.7527 20.6281 21.956C20.3828 22.5894 20.1779 23.2413 20.0066 23.8989C19.6375 25.4391 19.2905 26.9475 19.4326 28.5458C19.4878 29.3841 19.6743 30.181 19.9326 30.9782C18.4276 31.4628 16.9548 32.0303 15.7439 33.08C14.842 32.2663 14.2399 31.1868 13.9244 30.0205C13.5215 28.5075 13.5524 26.8728 13.9284 25.3571C14.3749 23.57 15.3097 21.8352 16.6662 20.576C17.5321 19.7687 18.5624 19.1677 19.7234 18.9083C19.9292 18.8579 20.2195 18.8746 20.3643 18.7037C20.4225 18.4524 20.312 18.3941 20.1142 18.2868C21.3354 17.2505 22.6743 16.3651 24.1186 15.6702C28.6565 13.479 33.9887 12.9547 38.8799 14.1452ZM13.1586 28.5301C13.1812 28.8372 13.2535 29.1494 13.2483 29.4565C13.1373 29.8662 12.9555 30.2568 12.8289 30.6627C12.6939 31.0648 12.6497 31.4788 12.5414 31.8874C12.3581 30.7629 12.6667 29.5424 13.1586 28.5301Z" fill="#AB2A18"/>
<path d="M89.3097 16.818C92.2279 18.569 94.6779 21.0737 96.3675 24.0264C96.6976 24.6419 97.055 25.2351 97.3086 25.89C98.4679 28.5363 99.0532 31.4247 98.9987 34.3153C98.9669 36.4737 98.5589 38.6062 97.8555 40.6458C98.368 40.9484 98.8464 41.2868 99.2407 41.7374C100.264 42.859 100.708 44.4168 100.511 45.9153C100.385 46.791 100.097 47.6576 99.5971 48.3934C98.6852 49.8221 97.1851 50.8585 95.5199 51.1823C94.352 51.4173 93.0875 51.2918 92.0065 50.7858C91.5887 50.5986 91.2425 50.2965 90.833 50.0993C90.6042 50.2107 90.396 50.3798 90.1848 50.5223C87.6012 52.2786 84.5935 53.3892 81.4955 53.7788C78.6 54.1438 75.6269 53.8615 72.8511 52.9575C71.9199 52.6192 70.9892 52.3443 70.1274 51.8406C65.982 49.807 62.6163 46.2794 60.7512 42.0582C59.3248 38.8503 58.7649 35.268 59.149 31.7784C59.3849 29.6565 59.9506 27.5733 60.8499 25.6358C62.3327 22.3552 64.7516 19.4929 67.7229 17.4618C70.385 15.6239 73.4977 14.4735 76.7084 14.098C79.7486 13.7426 82.8777 14.0959 85.7563 15.1392C87.0077 15.5424 88.1773 16.16 89.3097 16.818Z" fill="black"/>
<path d="M86.4598 15.9831C90.4736 17.5999 93.8944 20.6599 95.9919 24.4402C96.3827 25.0061 96.6117 25.6348 96.8891 26.2573C98.071 28.9768 98.6032 31.9666 98.4533 34.9265C98.3608 36.7956 97.988 38.6377 97.3812 40.4069C96.6278 40.1501 95.8795 39.9792 95.0777 40.0226C94.8619 40.0287 94.7464 40.36 94.9466 40.4746C95.1306 40.5773 95.4078 40.5289 95.6173 40.5532C97.0047 40.636 98.3341 41.3156 99.1483 42.4529C99.8623 43.4248 100.143 44.6554 99.9933 45.8461C99.9114 46.6136 99.5909 47.3657 99.2107 48.0313C98.3868 49.361 96.9964 50.349 95.4605 50.66C93.7711 51.0257 91.8978 50.5303 90.7466 49.2059C90.5384 48.9758 90.3886 48.7011 90.1843 48.4687C89.982 48.2743 89.6856 48.5227 89.7939 48.7608C89.9546 49.0997 90.2328 49.3926 90.4593 49.6901C87.593 51.764 84.1765 53.0526 80.6471 53.3395C77.5949 53.5953 74.4654 53.1269 71.6347 51.9516C69.3493 51.024 67.2538 49.6458 65.4827 47.9301C63.4043 45.9284 61.8029 43.4582 60.7875 40.7588C59.7678 38.0381 59.3749 35.0905 59.6369 32.1971C60.0072 28.0121 61.7739 23.9761 64.607 20.8721C66.691 18.5627 69.3402 16.7835 72.2555 15.7016C75.7078 14.4112 79.5213 14.147 83.1222 14.9273C84.2591 15.1782 85.3951 15.5066 86.4598 15.9831Z" fill="#ECAD80"/>
<path d="M97.8519 43.8724C98.0706 43.9581 97.9976 44.306 97.7853 44.3282C97.4182 44.3461 97.0469 44.2756 96.6781 44.2684C96.1292 44.2275 95.5856 44.255 95.0382 44.3043C95.3056 44.6488 95.5936 45.0083 95.8007 45.3927C95.9371 45.6557 96.0421 45.9216 95.9581 46.2209C95.8087 46.5053 95.501 46.6592 95.2022 46.7371C94.5565 46.909 93.8074 46.8273 93.1355 46.8339C92.9703 46.8222 92.7022 46.8385 92.6876 46.6131C92.6663 46.4344 92.7937 46.3566 92.9542 46.3526C93.6159 46.3202 94.3702 46.4235 95.0173 46.264C95.17 46.2196 95.3923 46.1609 95.4774 46.015C95.3456 45.4092 94.7683 44.869 94.4181 44.3753C94.2882 44.1511 94.3822 43.9468 94.6239 43.8683C95.4198 43.6666 96.3432 43.7172 97.1572 43.7687C97.3847 43.7872 97.6382 43.7888 97.8519 43.8724Z" fill="black"/>
<path d="M82.4583 31.0146C83.6285 31.392 84.6716 32.1433 85.3924 33.1396C86.1986 34.2461 86.5839 35.6276 86.4867 36.9922C86.4037 37.9384 86.1122 38.9007 85.5812 39.6933C84.8247 40.9044 83.6056 41.79 82.2327 42.1712C80.3537 42.7083 78.2712 42.2169 76.8129 40.9202C75.7227 39.9535 75.0164 38.578 74.8812 37.1256C74.7372 35.8028 75.0955 34.4733 75.8111 33.3582C76.4742 32.3478 77.4474 31.5594 78.5763 31.1281C79.8161 30.6479 81.1922 30.605 82.4583 31.0146Z" fill="black"/>
<path d="M82.1637 31.4578C83.4688 31.8473 84.5735 32.6937 85.2606 33.87C86.1272 35.3243 86.2395 37.2039 85.5178 38.7389C84.7135 40.5971 82.7801 41.8632 80.756 41.8715C79.7004 41.8829 78.6539 41.6014 77.7742 41.009C76.5273 40.2096 75.6485 38.8522 75.4263 37.3872C75.2814 36.47 75.3877 35.5261 75.7064 34.6555C76.1736 33.4515 77.0934 32.4217 78.2441 31.8334C79.4356 31.2094 80.8762 31.0768 82.1637 31.4578Z" fill="white"/>
<path d="M67.8218 26.8359C68.9117 27.1832 69.8683 27.9182 70.479 28.8859C71.1825 29.9865 71.4137 31.364 71.1123 32.6346C70.9022 33.4348 70.54 34.1842 69.9789 34.798C69.2154 35.6527 68.1463 36.2191 67.0103 36.3746C65.9145 36.5272 64.7669 36.3008 63.821 35.7243C62.5945 35.0117 61.7307 33.7407 61.4961 32.3443C61.34 31.466 61.4479 30.5676 61.7499 29.7307C62.1645 28.714 62.8959 27.8327 63.8493 27.2791C65.036 26.577 66.5082 26.4144 67.8218 26.8359Z" fill="black"/>
<path d="M67.355 27.2366C68.3479 27.4714 69.2294 28.0529 69.8425 28.8678C70.9582 30.3227 71.0403 32.4676 69.9762 33.9729C69.3034 34.981 68.206 35.6704 67.01 35.8562C66.2761 35.976 65.526 35.892 64.8256 35.6495C63.1556 35.0519 61.9767 33.4097 61.9395 31.6369C61.8833 30.0369 62.7548 28.4865 64.1485 27.7006C65.1106 27.1429 66.275 26.9804 67.355 27.2366Z" fill="white"/>
<path d="M79.0801 33.6117C79.9688 33.8711 80.6048 34.7027 80.5973 35.6323C80.6201 36.6909 79.784 37.6336 78.7354 37.7494C78.0278 37.8446 77.2718 37.5311 76.8284 36.9744C76.3034 36.3323 76.2016 35.3833 76.603 34.6511C77.056 33.7651 78.1306 33.3198 79.0801 33.6117ZM64.7582 28.7862C65.3128 28.8316 65.8103 29.1374 66.1406 29.5785C66.4628 30.0317 66.5815 30.5918 66.4624 31.1367C66.2576 32.1768 65.1412 32.8784 64.1139 32.6042C63.1942 32.4092 62.52 31.5044 62.6031 30.5689C62.6799 29.5187 63.7043 28.6552 64.7582 28.7862Z" fill="black"/>
<path d="M83.4488 24.4331C85.323 24.9289 86.8372 26.218 87.8663 27.8308C88.5603 28.9312 89.0366 30.2579 89.0564 31.5665C89.0407 31.8479 88.8987 31.8609 88.663 31.9079C88.4206 31.582 88.3003 31.2063 88.1027 30.8561C87.3894 29.5925 86.395 28.5157 85.245 27.6369C84.1493 26.8168 82.926 26.1328 81.5992 25.7727C81.1936 25.6356 80.7717 25.5984 80.3613 25.4923C80.1571 25.4227 79.9874 25.2113 80.1613 25.0116C80.4648 24.74 80.8107 24.4675 81.1988 24.3302C81.8934 24.0862 82.7582 24.2465 83.4488 24.4331ZM68.617 25.4064C69.7405 25.8171 70.7922 26.2966 71.658 27.1458C72.0519 27.5485 72.3892 28.0405 72.3671 28.6287C72.3261 29.0305 72.1248 29.3866 71.7754 29.5983C71.4018 29.3612 71.0994 29.05 70.7521 28.7796C69.0864 27.4361 67.1786 26.4397 65.1548 25.7559C64.7439 25.6086 64.2759 25.5699 63.8873 25.3759C63.7589 25.2731 63.8702 25.1542 63.9344 25.0517C64.096 24.8779 64.365 24.8639 64.5872 24.8411C65.9706 24.7391 67.3024 24.9894 68.617 25.4064Z" fill="black"/>
<path d="M75.4188 41.5058C75.4245 41.5842 75.4282 41.6627 75.4274 41.7403C75.3709 41.9746 75.1498 41.9414 74.9609 41.9592C74.5722 41.9619 74.1811 41.9499 73.7918 41.9338C72.1218 41.8202 70.5008 41.579 68.9295 40.9739C68.38 40.7827 67.849 40.5626 67.3381 40.2831C66.9577 40.0615 66.5305 39.8692 66.1944 39.5862C66.0337 39.4303 66.1115 39.1673 66.3427 39.1572C66.5662 39.2431 66.7613 39.4208 66.9753 39.5327C67.5324 39.8625 68.1231 40.0931 68.7152 40.3516C70.5817 41.0924 72.6396 41.4036 74.6412 41.4312C74.9094 41.4324 75.1606 41.4057 75.4188 41.5058Z" fill="black"/>
<path d="M81.0914 6.64469C82.2675 6.99744 83.3416 7.83145 83.9736 8.88632C84.3355 9.49808 84.5599 10.1997 84.5217 10.9163C84.4931 11.526 84.2361 12.1148 83.8097 12.5519C86.7698 12.922 89.6651 13.6659 92.3925 14.8837C92.9842 15.1654 93.5673 15.4715 94.1449 15.7811C96.589 17.1548 98.7683 18.9815 100.361 21.3039C101.836 23.4493 102.729 25.9849 102.869 28.5887C102.998 30.7404 102.629 32.9152 101.899 34.9371C104.374 35.374 106.345 37.5644 106.819 39.9886C107.043 41.1427 106.95 42.4107 106.365 43.4487C106.291 43.5888 106.1 43.6191 105.957 43.595C105.76 43.4514 105.633 43.2099 105.47 43.0285C104.599 42.0077 103.527 41.1456 102.375 40.4623C103.933 42.9332 104.602 45.9567 104.267 48.8559C104.103 50.3298 103.635 51.7621 102.897 53.0478C102.097 54.3958 100.963 55.5403 99.5255 56.1923C99.3324 56.2823 99.0166 56.196 99.0392 55.9459C99.4139 55.1163 99.8787 54.1721 99.7759 53.2276C98.7878 54.3269 97.5198 55.157 96.0967 55.5709C94.5349 56.0371 92.8166 55.9851 91.2706 55.4826C89.9645 55.0975 88.7534 54.3565 87.7359 53.4576C87.1427 53.815 86.6138 54.3261 86.4164 55.0082C86.3814 55.1575 86.2294 55.1622 86.109 55.206C85.9724 54.9925 85.8246 54.7868 85.6825 54.5768C85.3283 54.0434 85.0961 53.4601 84.8955 52.8555C84.8427 52.7311 84.8795 52.6245 84.9017 52.4979C86.9732 51.8433 88.9349 50.8291 90.6773 49.5323C90.8901 49.3613 91.058 49.5524 91.2271 49.6779C92.411 50.6708 94.03 50.9861 95.5218 50.649C97.0064 50.3331 98.3474 49.38 99.1667 48.1077C99.6483 47.3033 99.9867 46.4345 100.028 45.4904C100.099 44.2567 99.691 43.0143 98.8621 42.0916C98.1044 41.2399 97.0352 40.7157 95.9083 40.5782C95.1157 41.3588 94.2124 42.0453 93.2342 42.5774C92.3188 43.0395 91.3372 43.4299 90.3351 43.6556C90.1507 43.6899 89.9744 43.7191 89.8852 43.5107C89.8276 43.3103 90.107 43.1052 90.2074 42.9445C90.9088 42.0092 91.6304 41.034 92.0991 39.9582C92.5497 39.0799 92.8987 38.1554 93.1353 37.1963C93.189 36.9685 93.2887 36.72 93.2781 36.4855C93.0432 36.3479 92.792 36.2451 92.5631 36.0936C91.9458 35.6965 91.4697 35.0564 91.1379 34.4111C90.7147 33.5447 90.6799 32.6006 91.0182 31.6986C90.5218 32.1197 90.1145 32.6313 89.9085 33.257C89.8394 33.4041 89.7998 33.6711 89.626 33.7257C89.4434 33.7492 89.2449 33.6976 89.0682 33.6517C88.0398 33.34 87.0337 32.8142 86.2677 32.0504C85.5301 31.3223 85.0376 30.3605 84.9233 29.3262C84.7984 28.1558 85.1257 27.027 85.7036 26.0154C85.8594 25.7543 86.0368 25.5153 86.1754 25.2447C85.5372 25.7364 84.9805 26.2889 84.5416 26.9687C83.9916 27.8114 83.4833 28.831 83.4225 29.8512C83.4047 29.9856 83.4019 30.1616 83.3124 30.2686C83.2166 30.3855 83.0512 30.3649 82.9544 30.2545C82.3838 29.6344 82.1457 28.8927 81.9462 28.0938C81.7568 28.461 81.6602 28.7937 81.622 29.2025C81.5868 29.379 81.6145 29.6501 81.4241 29.7383C81.2535 29.8479 81.0465 29.7624 80.864 29.7343C79.4584 29.4099 78.0549 29.0271 76.7044 28.5184C75.94 28.282 75.2101 27.9177 74.4736 27.6039C72.9146 26.8348 71.3431 25.9112 70.1689 24.606C69.4521 23.8033 68.8802 22.836 68.834 21.7351C68.8054 21.2162 68.9455 20.7458 69.0951 20.256C68.7677 20.377 68.4885 20.5726 68.2202 20.7923C67.4193 21.4515 66.7468 22.303 66.3477 23.2641C66.2375 23.512 66.1997 23.7925 66.0718 24.0298C65.9383 24.1974 65.6908 24.0796 65.5513 23.9798C65.0719 23.6371 64.6271 23.2375 64.2318 22.8001C64.0074 22.558 63.8327 22.2802 63.5984 22.0474C62.7021 23.2774 61.8953 24.5211 61.2944 25.9267C59.3522 30.1373 59.0316 35.0607 60.363 39.4987C60.4557 39.806 60.5874 40.0641 60.4992 40.3956C60.2065 40.4928 60.03 40.4868 59.7375 40.3961C58.1334 39.951 56.9783 38.698 56.2574 37.2469C55.4443 35.5785 55.2016 33.6273 55.5954 31.8129C55.7274 31.1937 55.9846 30.6313 56.2461 30.059C55.1844 30.5215 54.2294 31.3665 53.7259 32.4174C53.668 32.5343 53.4724 32.5453 53.3767 32.4656C53.2739 32.3798 53.2705 32.2449 53.2601 32.1216C53.1833 29.9196 53.7342 27.7453 54.7243 25.7851C55.621 24.0275 56.9328 22.3899 58.5829 21.2864C59.8107 20.468 61.2119 19.955 62.7025 20.0088C62.3587 18.6036 62.5186 17.1311 63.1347 15.8245C63.9442 14.0728 65.4063 12.7354 67.0692 11.8011C69.4936 10.4543 72.3868 9.94713 75.1317 10.2885C76.6551 10.4657 78.1331 10.9522 79.4709 11.6997C79.8447 11.9028 80.1728 12.1639 80.5354 12.3884C80.903 11.5819 80.8033 10.7195 80.4858 9.91883C80.0873 8.94931 79.3676 8.05287 78.4465 7.53978C78.2743 7.42567 78.0198 7.38857 78.0219 7.13829C78.0825 6.91254 78.3088 6.82922 78.4958 6.73076C79.2959 6.35459 80.2624 6.38216 81.0914 6.64469Z" fill="black"/>
<path d="M81.3094 7.26167C82.3544 7.70517 83.242 8.49575 83.7278 9.52866C83.9717 10.0607 84.089 10.7019 83.9468 11.2776C83.86 11.7441 83.5494 12.1411 83.1652 12.4077C83.0366 12.4928 82.8916 12.6398 82.9792 12.8027C83.1116 13.0036 83.4231 13.0393 83.6435 13.0654C87.1569 13.4686 90.5917 14.4354 93.7075 16.1285C96.0386 17.411 98.1544 19.1243 99.7167 21.2912C101.169 23.2876 102.09 25.6562 102.315 28.1178C102.533 30.4127 102.168 32.7 101.382 34.8606C101.334 35.0078 101.267 35.1443 101.386 35.276C101.471 35.3879 101.587 35.3986 101.714 35.4279C103.791 35.7494 105.518 37.4729 106.143 39.4373C106.524 40.5959 106.519 41.8526 106.039 42.983C104.926 41.5564 103.407 40.3423 101.774 39.5634C101.596 39.4719 101.489 39.4504 101.342 39.6023C101.249 39.7937 101.374 39.8996 101.468 40.0509C103.056 42.2065 103.878 44.9275 103.834 47.5977C103.807 49.1497 103.478 50.7278 102.802 52.1289C102.153 53.4947 101.114 54.7329 99.7837 55.4772C99.9103 55.1138 100.067 54.7567 100.168 54.3858C100.307 53.8215 100.325 53.2187 100.293 52.6401C100.285 52.4623 100.181 52.3382 99.9933 52.3516C99.8086 52.342 99.7337 52.4846 99.6183 52.6017C98.7815 53.6532 97.6495 54.4754 96.3857 54.9325C95.1431 55.3901 93.7749 55.4841 92.4741 55.2542C90.8842 54.9749 89.3709 54.1946 88.1551 53.141C87.9625 52.98 87.7409 52.9232 87.5136 53.0469C86.9564 53.3373 86.4555 53.8401 86.1346 54.3768C85.8178 53.9181 85.5945 53.4146 85.4051 52.8938C86.0801 52.6412 86.7555 52.3946 87.4083 52.0857C88.617 51.5364 89.7467 50.8445 90.828 50.076C91.2559 50.3203 91.6326 50.624 92.09 50.8207C93.7792 51.5707 95.7658 51.4029 97.3602 50.4962C98.4768 49.8746 99.3792 48.9092 99.9561 47.7706C100.491 46.6381 100.701 45.3539 100.44 44.1199C100.16 42.7378 99.2745 41.4604 98.0328 40.7762C97.5221 40.4471 96.965 40.2487 96.3721 40.1281C96.4534 39.9397 96.5967 39.8055 96.5251 39.5903C96.383 39.501 96.2717 39.4504 96.1519 39.5997C95.6111 40.2945 94.8959 40.8644 94.1879 41.3821C93.1813 42.1199 92.0196 42.6176 90.835 42.9934C91.513 42.0226 92.1911 41.1093 92.6458 40.003C93.1988 38.8656 93.5637 37.6549 93.8004 36.4145C93.8342 36.2725 93.8198 36.1269 93.6693 36.0613C93.2164 35.8587 92.7795 35.6952 92.4271 35.3291C91.8727 34.759 91.3801 34.0025 91.2988 33.1939C91.2062 32.4446 91.5107 31.6311 91.8257 30.9653C91.8156 30.7409 91.5617 30.669 91.3992 30.8025C91.0425 31.0665 90.6641 31.3288 90.3596 31.6495C89.9227 32.0859 89.5863 32.6314 89.3517 33.1999C88.0507 32.8344 86.7621 32.0879 86.0234 30.9251C85.4421 30.0239 85.29 28.9224 85.5156 27.8816C85.7703 26.7718 86.3654 25.7697 87.1396 24.9421C87.2464 24.8134 87.4268 24.6633 87.4171 24.4848C87.3927 24.2619 87.1171 24.2195 86.9404 24.2787C85.4843 24.9264 84.3573 26.0917 83.6298 27.4995C83.2786 28.0921 83.1019 28.7355 82.9313 29.3962C82.6146 28.8236 82.4348 28.196 82.3678 27.5465C82.3511 27.2636 82.0246 27.1571 81.8486 27.3841C81.4333 27.9117 81.1781 28.5967 81.1198 29.2656C78.5171 28.6834 76.0046 27.8632 73.6473 26.5985C72.3415 25.8581 70.9766 24.9273 70.0941 23.6901C69.5736 22.9575 69.2429 22.1023 69.3801 21.1924C69.446 20.7158 69.6849 20.3537 69.8659 19.9235C69.8332 19.7106 69.671 19.6115 69.4637 19.6447C68.7352 19.7834 68.1684 20.1785 67.6193 20.6555C66.7751 21.4252 66.0783 22.3791 65.7118 23.4684C64.6463 22.6303 63.7787 21.6021 63.3374 20.3043C62.7995 18.7618 63.0152 17.0342 63.8206 15.6263C64.3363 14.6635 65.1152 13.8272 65.968 13.1518C67.3843 12.0398 69.1138 11.3167 70.8721 10.9625C72.9499 10.5501 75.1075 10.6196 77.1355 11.2468C78.3202 11.5955 79.4183 12.1849 80.386 12.9482C80.5194 13.0687 80.6693 13.0173 80.7812 12.9016C81.2782 12.2539 81.3752 11.4384 81.2304 10.6546C80.9651 9.22821 80.0467 7.90812 78.8112 7.15165C79.6345 6.845 80.5046 6.94833 81.3094 7.26167ZM62.8599 20.5419C63.0024 20.8913 63.1579 21.2289 63.332 21.5639C62.3115 22.8867 61.3975 24.3426 60.748 25.8838C58.7716 30.2664 58.5103 35.3374 59.9486 39.9185C59.0274 39.6955 58.2462 39.114 57.631 38.4112C56.704 37.3337 56.1577 35.9131 55.9859 34.511C55.8221 33.1376 56.0035 31.6579 56.6412 30.4202C56.7454 30.2037 56.9015 30.009 56.9866 29.7852C57.0031 29.5733 56.8279 29.4637 56.632 29.4687C56.2205 29.479 55.7956 29.6762 55.4458 29.8818C54.8057 30.2508 54.2524 30.7464 53.7904 31.3208C53.8186 29.5989 54.3064 27.8635 55.0332 26.3102C55.9473 24.4347 57.3195 22.6832 59.1041 21.5684C60.2353 20.8596 61.5142 20.4393 62.8599 20.5419Z" fill="#796A45"/>
</svg>
